<svg width="1477" height="237" viewBox="0 0 1477 237" fill="none" xmlns="http://www.w3.org/2000/svg">
<path d="M0 51.2378C0 35.1186 5.23891 22.6317 15.7168 13.7775C26.4223 4.92321 41.5698 0.496094 61.1587 0.496094C80.7476 0.496094 96.6923 2.53938 108.992 6.62596V37.2753C96.6923 32.5076 81.7726 30.1238 64.2337 30.1238C43.0503 30.1238 32.4585 37.9564 32.4585 53.6216V66.903C32.4585 74.1679 33.8252 79.9573 36.5586 84.271C39.5198 88.3576 44.6448 92.4441 51.9336 96.5307L91.5672 118.666C110.017 128.656 119.242 143.754 119.242 163.959V183.03C119.242 199.603 113.434 212.431 101.817 221.512C90.2006 230.366 73.8005 234.793 52.617 234.793C31.6614 234.793 14.8056 232.409 2.05001 227.642V196.992C17.0834 202.441 32.914 205.166 49.542 205.166C74.37 205.166 86.7839 196.765 86.7839 179.965V168.386C86.7839 161.575 85.531 156.354 83.0255 152.721C80.5201 148.862 75.8505 145.116 69.0171 141.483L30.4085 120.369C10.1362 109.472 0 93.2386 0 71.6707V51.2378ZM150.102 2.19884H182.56V233.091H150.102V2.19884ZM324.276 2.19884H356.05V233.091H321.884C286.123 142.051 262.775 81.66 251.842 51.9189C251.842 54.4161 252.297 59.6381 253.209 67.5841C255.031 87.3359 255.942 109.244 255.942 133.31V233.091H224.509V2.19884H259.017C290.678 82.1143 309.926 131.607 316.759 150.678C323.592 169.749 327.465 180.533 328.376 183.03C328.376 180.987 327.692 170.997 326.326 153.062C325.187 134.899 324.503 117.418 324.276 100.617V2.19884ZM394.928 53.2811C394.928 36.7076 400.511 23.7668 411.67 14.4586C423.061 5.15036 440.257 0.496094 463.262 0.496094C478.753 0.496094 493.216 2.42598 506.654 6.28542V36.9348C492.987 32.3942 478.637 30.1238 463.603 30.1238C439.461 30.1238 427.387 38.7509 427.387 56.0055V181.327C427.387 197.674 437.411 205.847 457.453 205.847C468.616 205.847 477.045 203.917 482.737 200.057V116.623H514.512V221.171C497.887 230.254 479.207 234.793 458.478 234.793C437.978 234.793 422.262 230.594 411.328 222.193C400.395 213.566 394.928 200.739 394.928 183.711V53.2811ZM642.672 2.19884H674.789V180.646C674.789 197.446 669.551 210.955 659.072 221.171C648.822 231.388 633.563 236.496 613.289 236.496C593.017 236.496 577.642 231.388 567.163 221.171C556.913 210.955 551.788 197.446 551.788 180.646V2.19884H583.905V179.284C583.905 198.128 593.701 207.549 613.289 207.549C632.88 207.549 642.672 198.128 642.672 179.284V2.19884ZM715.325 2.19884H747.783V205.506H815.433V233.091H715.325V2.19884ZM935.821 233.091L923.179 171.792H865.778L853.137 233.091H821.703L872.27 2.19884H917.37L967.254 233.091H935.821ZM871.245 144.207H917.37L894.137 32.1671L871.245 144.207ZM1025.38 143.186V233.091H993.262V2.19884H1055.45C1073.67 2.19884 1087.56 6.73937 1097.13 15.8208C1106.92 24.9022 1111.82 37.5025 1111.82 53.6216V90.4008C1111.82 115.601 1102.14 131.834 1082.78 139.099L1119.68 233.091H1084.15L1051 143.186H1025.38ZM1025.38 30.1238V116.283H1052.71C1062.28 116.283 1069.11 114.126 1073.21 109.812C1077.54 105.498 1079.7 98.9146 1079.7 90.0603V55.6649C1079.7 38.6375 1070.71 30.1238 1052.71 30.1238H1025.38ZM1151.75 2.19884H1184.21V233.091H1151.75V2.19884ZM1328.32 2.19884V30.4643H1284.24V233.091H1251.78V30.4643H1207.71V2.19884H1328.32ZM1420.62 233.091H1388.17V157.148L1331.79 2.19884H1364.93L1384.41 56.6866C1391.47 77.1195 1398.3 98.8012 1404.91 121.731C1411.29 99.4823 1418 77.8006 1425.07 56.6866L1444.54 2.19884H1477L1420.62 157.148V233.091Z" fill="#EFEFEF"/>
</svg>
